      <svg
        id="qp-logo-svg-secondary"
        alt="Zip logo, when clicked, opens infographic about the option of buying this item with 4 installment payments"
        version="1.1"
        viewBox="0 0 51 23"
        xmlns="http://www.w3.org/2000/svg"
      >
        <title>Zip - Buy now pay later.</title>
        <path d="M50.2002 3.58333C50.2002 1.74238 48.7079 0.25 46.8669 0.25H3.53353C1.69258 0.25 0.200195 1.74239 0.200195 3.58333V19.4167C0.200195 21.2577 1.69258 22.75 3.53353 22.75H46.8669C48.7079 22.75 50.2002 21.2577 50.2002 19.4167V3.58333Z" fill="#1A0826"/>
        <path d="M19.7075 8.00439L20.8545 17.3367H32.0708L30.9237 8.00439H19.7075Z" fill="#AA8FFF"/>
        <path d="M22.9072 4.44319C23.6225 5.11572 23.7207 6.17347 23.1264 6.80579C22.532 7.43811 21.4702 7.40549 20.7549 6.73297C20.0395 6.06046 19.9414 5.00271 20.5357 4.37039C21.13 3.73809 22.1919 3.77067 22.9072 4.44319Z" fill="#FFFFFA"/>
        <path fill-rule="evenodd" clip-rule="evenodd" d="M43.8252 11.3648C43.567 9.26594 41.9184 7.99706 39.6795 8.00443H32.2217L33.3687 17.3367H36.7252L36.4965 15.4702H40.0484C42.8404 15.4702 44.1202 13.7292 43.8252 11.3648ZM39.6832 12.855L36.1718 12.8587L35.8952 10.6197L39.425 10.6234C40.2549 10.6344 40.679 11.0992 40.7492 11.741C40.7934 12.1505 40.6052 12.855 39.6832 12.855Z" fill="#FFFFFA"/>
        <path d="M8.02638 14.7288L8.34726 17.3366H19.5524L19.1835 14.3525H13.9609L13.913 13.98L18.7262 10.6196L18.4054 8.00439H7.2002L7.56535 10.9922H12.7991L12.847 11.3647L8.02638 14.7288Z" fill="#FFFFFA"/>
      </svg>