  <svg
      
        id="qp-logo-svg-secondary-light"
        alt="Zip logo, when clicked, opens infographic about the option of buying this item with 4 installment payments"
        version="1.1"
        viewBox="0 0 51 23"
        xmlns="http://www.w3.org/2000/svg"
      >
        <title>Zip - Buy now pay later.</title>
        <path d="M46.7668 0.75C48.3316 0.75 49.6001 2.01852 49.6001 3.58333V19.4167C49.6001 20.9815 48.3316 22.25 46.7668 22.25H3.43343C1.86862 22.25 0.600098 20.9815 0.600098 19.4167V3.58333C0.600098 2.01853 1.86862 0.75 3.43343 0.75H46.7668Z" fill="#FFFFFA" stroke="#1A0826"/>
        <path fill-rule="evenodd" clip-rule="evenodd" d="M7.92575 14.7612L8.24585 17.3754H19.4508L19.0846 14.3819H13.8595L13.8143 14.0105L18.6261 10.6396L18.3046 8.01978H7.1001L7.46679 11.0137H12.6998L12.7459 11.3879L7.92575 14.7612Z" fill="#1A0826"/>
        <path fill-rule="evenodd" clip-rule="evenodd" d="M19.6064 8.01953L20.7522 17.3751H31.966L30.8198 8.01953H19.6064Z" fill="#AA8FFF"/>
        <path fill-rule="evenodd" clip-rule="evenodd" d="M20.6924 6.77815C21.4263 7.43263 22.4849 7.43263 23.0566 6.77815C23.6288 6.12368 23.4974 5.06231 22.7636 4.40783C22.0302 3.75289 20.9715 3.75289 20.3994 4.40783C19.8277 5.06231 19.9586 6.12368 20.6924 6.77815Z" fill="#1A0826"/>
        <path fill-rule="evenodd" clip-rule="evenodd" d="M39.5813 12.8811L36.0718 12.8849L35.7969 10.6397L39.3246 10.6426C40.154 10.6524 40.5789 11.1209 40.6474 11.7618C40.6912 12.1743 40.503 12.8811 39.5813 12.8811ZM43.7264 11.3881C43.4673 9.28501 41.8197 8.01062 39.5804 8.01945H32.1216L33.2673 17.3756H36.6226L36.3929 15.5042H39.9438C42.7386 15.5042 44.0176 13.758 43.7264 11.3881Z" fill="#1A0826"/>
      </svg>