<svg width="768" height="285" viewBox="0 0 768 285" fill="none" xmlns="http://www.w3.org/2000/svg">
<g clip-path="url(#clip0)">
<path d="M19.53 227.27L26.19 281.53H259.36L251.73 219.39H143.01L142.06 211.69L242.19 141.72L235.5 87.3601H2.34998L9.97998 149.49H118.88L119.83 157.26L19.53 227.27Z" fill="black"/>
<path d="M262.59 87.3601L286.44 281.53H519.78L495.93 87.3601H262.59Z" fill="#AA8FFF"/>
<path d="M764.47 157.26C759.09 113.62 724.81 87.1701 678.21 87.3601H523L546.84 281.54H616.67L611.89 242.7H685.78C743.93 242.69 770.54 206.46 764.47 157.26ZM678.23 188.26L605.23 188.34L599.51 141.74L672.92 141.8C690.18 142.01 699.01 151.73 700.44 165.03C701.32 173.59 697.4 188.25 678.23 188.25V188.26Z" fill="black"/>
<path d="M332.303 61.5598C344.584 48.3762 342.443 26.4212 327.522 12.522C312.601 -1.37727 290.549 -1.95741 278.269 11.2262C265.988 24.4098 268.129 46.3647 283.05 60.264C297.971 74.1632 320.023 74.7434 332.303 61.5598Z" fill="black"/>
</g>
<defs>
<clipPath id="clip0">
<rect width="768" height="285" fill="white"/>
</clipPath>
</defs>
</svg>
