<svg width="124" height="18" viewBox="0 0 124 18" fill="none" xmlns="http://www.w3.org/2000/svg">
<path d="M19.31 2.066C19.112 2.066 18.536 2.102 18.05 2.102C17.636 2.102 16.646 2.066 16.466 2.066C15.926 2.066 15.782 2.354 15.782 2.552C15.782 2.93 17.168 2.93 17.168 3.38C17.168 3.488 17.15 3.578 17.096 3.686L14.252 11.354C14.216 11.48 14.072 11.48 14.018 11.336L10.958 3.596C10.904 3.434 10.886 3.362 10.886 3.29C10.886 2.966 12.074 2.93 12.074 2.552C12.074 2.354 11.93 2.066 11.39 2.066C11.192 2.066 10.436 2.102 9.824 2.102C9.212 2.102 8.492 2.066 8.312 2.066C7.754 2.066 7.628 2.354 7.628 2.552C7.628 2.894 8.834 2.912 9.122 3.578L9.788 5.27C9.842 5.414 9.878 5.63 9.824 5.792L7.646 11.336C7.574 11.516 7.466 11.498 7.412 11.354L4.478 3.56C4.442 3.434 4.406 3.362 4.406 3.308C4.406 2.894 5.504 2.912 5.504 2.552C5.504 2.354 5.378 2.066 4.82 2.066C4.586 2.066 3.848 2.12 3.182 2.12C2.462 2.12 1.85 2.066 1.616 2.066C1.094 2.066 0.95 2.354 0.95 2.57C0.95 2.984 2.3 2.966 2.66 3.866L6.404 13.46C6.566 13.892 6.8 14.126 7.268 14.126C7.736 14.126 7.952 13.802 8.114 13.424L10.382 7.718C10.454 7.538 10.616 7.538 10.688 7.718L13.028 13.46C13.19 13.892 13.532 14.126 13.892 14.126C14.36 14.126 14.576 13.82 14.738 13.424L18.518 3.56C18.752 2.948 19.994 2.948 19.994 2.552C19.994 2.354 19.832 2.066 19.31 2.066ZM24.6275 4.37C21.7835 4.37 19.8395 6.566 19.8395 9.374C19.8395 12.38 22.1255 14.198 24.8075 14.198C27.1475 14.198 28.5875 12.92 28.5875 12.146C28.5875 11.93 28.4615 11.732 28.2095 11.732C27.6155 11.732 27.1295 12.848 25.2395 12.848C23.0975 12.848 21.6935 11.354 21.6935 9.554C21.6935 9.248 21.8015 9.212 21.9815 9.212H27.7595C28.1375 9.212 28.6055 9.14 28.6055 8.042C28.6055 6.314 27.2555 4.37 24.6275 4.37ZM24.5555 5.468C26.1935 5.468 26.8415 6.818 26.8415 7.718C26.8415 8.024 26.6795 8.132 26.4275 8.132H22.0895C21.8555 8.132 21.7835 8.096 21.7835 7.862C21.7835 7.124 22.6115 5.468 24.5555 5.468ZM32.962 0.536C32.458 0.536 31.18 1.166 30.82 1.418C30.622 1.562 30.514 1.706 30.514 1.868C30.514 2.318 31.504 2.066 31.504 2.93V12.722C31.504 13.1 30.262 13.19 30.262 13.622C30.262 13.766 30.406 14.072 30.892 14.072C31.108 14.072 31.99 14 32.386 14C32.782 14 33.682 14.072 33.898 14.072C34.384 14.072 34.528 13.766 34.528 13.622C34.528 13.19 33.268 13.1 33.268 12.722V0.913999C33.268 0.805999 33.286 0.536 32.962 0.536ZM40.9618 4.37C37.9198 4.37 36.0118 6.584 36.0118 9.356C36.0118 12.434 38.3698 14.198 40.9798 14.198C43.2118 14.198 44.8138 12.902 44.8138 12.056C44.8138 11.822 44.6878 11.624 44.4718 11.624C43.8958 11.624 43.3378 12.884 41.4478 12.884C39.2338 12.884 37.8658 11.318 37.8658 8.816C37.8658 6.692 38.8378 5.396 40.8718 5.396C41.9878 5.396 42.7798 5.828 42.7798 6.494C42.7798 6.998 42.4018 7.16 42.4018 7.61C42.4018 8.096 42.7798 8.42 43.3738 8.42C44.1478 8.42 44.7238 7.88 44.7238 6.962C44.7238 5.522 43.1758 4.37 40.9618 4.37ZM51.5944 4.37C48.4264 4.37 46.7344 6.944 46.7344 9.41C46.7344 12.182 48.8224 14.198 51.6304 14.198C54.8164 14.198 56.5084 11.624 56.5084 9.158C56.5084 6.386 54.4204 4.37 51.5944 4.37ZM51.2704 5.486C53.2504 5.486 54.6544 7.322 54.6544 9.752C54.6544 11.606 53.8984 13.082 51.9724 13.082C49.9924 13.082 48.5884 11.246 48.5884 8.816C48.5884 6.962 49.3444 5.486 51.2704 5.486ZM70.0933 4.46C67.8973 4.46 67.2133 6.08 66.9253 6.08C66.7273 6.08 66.0793 4.46 64.0993 4.46C62.1193 4.46 61.5253 6.008 61.2193 6.008C61.1293 6.008 61.1113 5.954 61.0573 4.784C61.0393 4.46 61.0213 4.37 60.7873 4.37C60.3553 4.37 59.1853 4.694 58.6813 4.964C58.4653 5.09 58.3573 5.198 58.3573 5.36C58.3573 5.828 59.3653 5.576 59.3653 6.404V12.722C59.3653 13.1 58.1053 13.19 58.1053 13.622C58.1053 13.766 58.2493 14.072 58.7173 14.072C58.9333 14.072 59.7973 14 60.2293 14C60.6793 14 61.6693 14.036 61.8133 14.036C62.1193 14.036 62.2093 13.838 62.2093 13.658C62.2093 13.136 61.1293 13.028 61.1293 12.596V8.456C61.1293 7.592 61.5973 5.63 63.4873 5.63C64.8193 5.63 65.4673 7.124 65.4673 8.006V12.596C65.4673 13.028 64.4053 13.172 64.4053 13.622C64.4053 13.802 64.4953 14.036 64.8193 14.036C64.9813 14.036 65.9713 14 66.3673 14C66.7993 14 67.6453 14.036 67.8253 14.036C68.2393 14.036 68.3653 13.784 68.3653 13.622C68.3653 13.19 67.2133 13.028 67.2133 12.596V7.97C67.2133 7.07 67.7533 5.63 69.4993 5.63C71.2093 5.63 71.5513 7.124 71.5513 8.006V12.596C71.5513 13.028 70.4893 13.136 70.4893 13.658C70.4893 13.838 70.5973 14.036 70.9213 14.036C71.0653 14.036 72.0373 14 72.4513 14C72.8293 14 73.7653 14.072 73.9633 14.072C74.4313 14.072 74.5753 13.766 74.5753 13.622C74.5753 13.19 73.3153 13.1 73.3153 12.722V7.952C73.3153 6.098 72.5413 4.46 70.0933 4.46ZM80.8071 4.37C77.9631 4.37 76.0191 6.566 76.0191 9.374C76.0191 12.38 78.3051 14.198 80.9871 14.198C83.3271 14.198 84.7671 12.92 84.7671 12.146C84.7671 11.93 84.6411 11.732 84.3891 11.732C83.7951 11.732 83.3091 12.848 81.4191 12.848C79.2771 12.848 77.8731 11.354 77.8731 9.554C77.8731 9.248 77.9811 9.212 78.1611 9.212H83.9391C84.3171 9.212 84.7851 9.14 84.7851 8.042C84.7851 6.314 83.4351 4.37 80.8071 4.37ZM80.7351 5.468C82.3731 5.468 83.0211 6.818 83.0211 7.718C83.0211 8.024 82.8591 8.132 82.6071 8.132H78.2691C78.0351 8.132 77.9631 8.096 77.9631 7.862C77.9631 7.124 78.7911 5.468 80.7351 5.468ZM97.1464 2.048C96.5344 2.048 93.5464 2.12 92.7004 2.12C91.9984 2.12 91.3504 2.048 91.0804 2.048C90.5404 2.048 90.3964 2.354 90.3964 2.498C90.3964 2.93 91.6564 3.02 91.6564 3.398V12.704C91.6564 13.082 90.3964 13.172 90.3964 13.604C90.3964 13.766 90.5404 14.054 91.0804 14.054C91.3144 14.054 92.1784 14 92.6104 14C93.0424 14 94.3204 14.054 94.5364 14.054C95.0764 14.054 95.2204 13.748 95.2204 13.604C95.2204 13.172 93.5284 13.1 93.5284 12.704V9.86C93.5284 9.518 93.6364 9.428 93.9064 9.428C94.8244 9.428 95.7784 9.464 96.7504 9.464C99.3964 9.464 100.836 7.682 100.836 5.522C100.836 3.272 99.3064 2.048 97.1464 2.048ZM93.9964 8.168C93.6004 8.168 93.5284 8.024 93.5284 7.772V3.812C93.5284 3.452 93.6364 3.344 93.9244 3.344H96.6964C98.0824 3.344 98.9284 4.118 98.9284 5.72C98.9284 8.114 97.0564 8.168 96.4984 8.168H93.9964ZM110.454 12.218V7.826C110.454 6.98 110.526 4.37 106.638 4.37C104.586 4.37 102.966 5.126 102.966 6.566C102.966 7.358 103.452 7.97 104.244 7.97C104.802 7.97 105.198 7.7 105.198 7.268C105.198 6.872 104.82 6.782 104.82 6.314C104.82 5.756 105.342 5.396 106.548 5.396C108.024 5.396 108.708 6.08 108.708 7.646C108.708 8.096 108.51 8.222 108.078 8.33L105.342 8.996C103.992 9.32 102.228 9.68 102.228 11.66C102.228 13.298 103.416 14.144 105.432 14.144C107.718 14.144 108.438 12.92 108.78 12.92C109.086 12.92 109.122 14.036 110.328 14.036C111.03 14.036 111.912 13.478 111.912 12.866C111.912 12.65 111.822 12.506 111.696 12.506C111.426 12.506 111.354 12.758 110.868 12.758C110.616 12.758 110.454 12.614 110.454 12.218ZM108.708 10.652C108.708 12.002 107.754 13.028 105.954 13.028C104.388 13.028 104.136 12.2 104.136 11.516C104.154 10.328 105.126 10.076 106.494 9.752L108.168 9.356C108.564 9.248 108.708 9.374 108.708 9.68V10.652ZM122.765 4.568C122.639 4.568 122.117 4.586 121.631 4.586L120.065 4.568C119.723 4.568 119.561 4.784 119.561 4.982C119.561 5.45 120.569 5.324 120.569 5.72C120.569 5.828 120.497 5.99 120.479 6.026L118.193 11.372C118.139 11.534 117.905 11.534 117.833 11.372L115.529 5.936C115.475 5.828 115.457 5.774 115.457 5.72C115.457 5.342 116.537 5.432 116.537 4.982C116.537 4.784 116.375 4.568 115.871 4.568C115.601 4.568 114.881 4.604 114.197 4.604C113.513 4.604 113.009 4.568 112.811 4.568C112.325 4.568 112.181 4.856 112.181 5.036C112.181 5.504 113.261 5.342 113.693 6.26L116.321 12.002C116.717 12.902 116.825 13.334 116.825 13.73C116.825 14.72 116.051 16.052 115.313 16.052C114.521 16.052 114.647 15.08 113.729 15.08C113.171 15.08 112.865 15.458 112.865 15.962C112.865 16.916 113.909 17.402 114.845 17.402C116.771 17.402 117.761 15.278 118.409 13.82L121.919 5.99C122.189 5.414 123.287 5.504 123.287 5.036C123.287 4.874 123.143 4.568 122.765 4.568Z" fill="#3C3CF7"/>
</svg>
